<svg width="441" height="75" viewBox="0 0 441 75" fill="none" xmlns="http://www.w3.org/2000/svg">
<path d="M43.9677 18.9629C43.9681 18.0483 43.7443 17.1471 43.3154 16.3367C42.8865 15.5264 42.2653 14.8309 41.5051 14.31L41.3106 14.1847L36.0757 10.7493L35.8134 10.577L34.6597 9.81944C34.5559 9.75396 34.4475 9.69595 34.3353 9.64588C34.3138 9.63585 34.291 9.62019 34.272 9.61079C34.1178 9.54734 33.9525 9.51435 33.7854 9.51367C33.5331 9.514 33.2864 9.58715 33.0755 9.72416C32.8646 9.86117 32.6987 10.0561 32.5982 10.285C32.5931 10.3019 32.5874 10.3182 32.5823 10.3357C32.5498 10.4313 32.5285 10.5304 32.519 10.6308C32.5114 10.6872 32.4879 10.931 32.4879 10.9717V12.0287V12.0337L32.4816 30.4617C32.4772 30.809 32.3933 31.1507 32.2364 31.4614C32.0794 31.7721 31.8533 32.0436 31.5752 32.2556C31.297 32.4676 30.9739 32.6146 30.6301 32.6856C30.2864 32.7565 29.9308 32.7496 29.5901 32.6653C29.4146 32.6026 29.2391 32.5369 29.0618 32.4773C29.0529 32.4729 29.044 32.4704 29.0351 32.4661C25.7674 31.3458 22.2776 31.0079 18.8522 31.4802C15.4268 31.9526 12.1636 33.2216 9.33028 35.1832C6.497 37.1447 4.17451 39.7429 2.55347 42.7643C0.932432 45.7858 0.0590648 49.1444 0.00506832 52.5644L0 52.5682V52.8934L0.00570186 52.899C0.0895029 58.6046 2.41866 64.0532 6.49863 68.0879C10.5786 72.1226 16.088 74.4257 21.8571 74.508C21.8571 74.508 22.1359 74.5137 22.191 74.5137C34.4462 74.5137 44 64.6885 44 52.5682V18.9629H43.9677Z" fill="#1D1928"/>
<path d="M56.2253 5.25542C56.0952 5.12764 52.964 2.14211 46.5247 0.953135C40.0855 -0.23584 35.658 1.35691 35.4749 1.42528C34.9034 1.63611 34.1432 1.89103 34.0188 2.3325C33.8944 2.77397 34.4134 3.36942 34.8144 3.75914C34.9438 3.88692 38.0744 6.87309 44.5143 8.06207C45.867 8.31291 47.2369 8.45688 48.6116 8.49268C50.9639 8.6001 53.3168 8.29467 55.5661 7.58993C56.1344 7.37909 56.8548 7.13057 56.9798 6.68909C57.1049 6.24762 56.6237 5.64578 56.2253 5.25542Z" fill="#1D1928"/>
<path d="M88.506 45.7996C89.9695 44.9024 91.164 43.6272 91.9639 42.1083C92.7637 40.5894 93.1392 38.8829 93.051 37.1686C93.051 30.0336 87.251 25.6006 77.916 25.6006H65.7C65.0775 25.6095 64.484 25.865 64.0496 26.311C63.6152 26.757 63.3755 27.3571 63.383 27.9796V65.9476C63.3758 66.5699 63.6156 67.1697 64.05 67.6155C64.4843 68.0613 65.0777 68.3166 65.7 68.3256H79.485C89 68.3256 94.68 63.6846 94.68 55.9116C94.7824 53.8015 94.2486 51.7094 93.1477 49.9063C92.0469 48.1033 90.4297 46.6725 88.506 45.7996ZM77.916 43.1996H71.951V33.0756H77.916C80.885 33.0756 84.425 33.9326 84.425 38.0136C84.425 42.2936 80.885 43.1926 77.916 43.1926M71.951 50.1256H79.488C81.897 50.1256 85.937 50.8066 85.937 55.3646C85.937 58.7976 83.526 60.8466 79.488 60.8466H71.951V50.1256Z" fill="#1D1928"/>
<path d="M123.441 60.2996H109.012V50.7306H121.506C122.118 50.7226 122.703 50.4758 123.136 50.0428C123.569 49.6098 123.816 49.0249 123.824 48.4126V45.0866C123.831 44.4641 123.591 43.8641 123.157 43.4184C122.722 42.9726 122.128 42.7173 121.506 42.7086H109.012V33.6206H122.9C123.523 33.6117 124.116 33.3562 124.551 32.9102C124.985 32.4643 125.225 31.8642 125.218 31.2416V27.9776C125.225 27.3552 124.985 26.7554 124.55 26.3096C124.116 25.8639 123.522 25.6086 122.9 25.5996H102.764C102.133 25.6004 101.529 25.8513 101.083 26.2973C100.637 26.7433 100.387 27.348 100.386 27.9786V65.9466C100.387 66.577 100.638 67.1814 101.083 67.6272C101.529 68.073 102.134 68.3238 102.764 68.3246H123.441C124.071 68.3238 124.676 68.073 125.122 67.6272C125.567 67.1814 125.818 66.577 125.819 65.9466V62.6816C125.818 62.0512 125.567 61.4468 125.122 61.001C124.676 60.5552 124.071 60.3044 123.441 60.3036" fill="#1D1928"/>
<path d="M155.471 51.2776C157.711 50.2679 159.602 48.6199 160.91 46.5399C162.217 44.4599 162.881 42.0405 162.82 39.5846C162.82 31.3496 156.273 25.5986 146.899 25.5986H134.384C133.753 25.5992 133.149 25.8498 132.703 26.2957C132.257 26.7415 132.006 27.346 132.005 27.9766V65.9446C132.006 66.5752 132.257 67.1798 132.703 67.6256C133.149 68.0714 133.753 68.3221 134.384 68.3226H138.253C138.884 68.3221 139.488 68.0714 139.934 67.6256C140.38 67.1798 140.631 66.5752 140.632 65.9446V53.0876H147.446L155.246 66.8306C155.5 67.2802 155.867 67.6548 156.312 67.9168C156.757 68.1787 157.263 68.3187 157.779 68.3226H163.16C163.434 68.3268 163.704 68.2573 163.942 68.1213C164.18 67.9853 164.377 67.7879 164.513 67.5496C164.651 67.3065 164.72 67.0308 164.715 66.7514C164.709 66.472 164.629 66.1993 164.482 65.9616L155.471 51.2776ZM154.071 39.5846C154.071 43.4136 151.456 45.6096 146.897 45.6096H140.63V33.6196H146.9C151.325 33.6196 154.074 35.9056 154.074 39.5846" fill="#1D1928"/>
<path d="M193.679 51.2776C195.919 50.2679 197.81 48.6199 199.118 46.5399C200.425 44.4599 201.089 42.0405 201.028 39.5846C201.028 31.3496 194.481 25.5986 185.107 25.5986H172.592C171.961 25.5992 171.357 25.8498 170.911 26.2957C170.465 26.7415 170.214 27.346 170.213 27.9766V65.9446C170.214 66.5752 170.465 67.1798 170.911 67.6256C171.357 68.0714 171.961 68.3221 172.592 68.3226H176.461C177.092 68.3221 177.696 68.0714 178.142 67.6256C178.588 67.1798 178.839 66.5752 178.84 65.9446V53.0876H185.654L193.454 66.8306C193.708 67.2802 194.075 67.6548 194.52 67.9168C194.965 68.1787 195.471 68.3187 195.987 68.3226H201.368C201.642 68.3268 201.912 68.2573 202.15 68.1213C202.388 67.9853 202.585 67.7879 202.721 67.5496C202.859 67.3065 202.928 67.0308 202.923 66.7514C202.917 66.472 202.837 66.1993 202.69 65.9616L193.679 51.2776ZM192.279 39.5846C192.279 43.4136 189.664 45.6096 185.105 45.6096H178.84V33.6196H185.107C189.532 33.6196 192.281 35.9056 192.281 39.5846" fill="#1D1928"/>
<path d="M239.52 25.5996H235.288C234.676 25.593 234.074 25.75 233.544 26.0546C233.014 26.3592 232.574 26.8001 232.272 27.3316L222.47 44.4996L212.67 27.3336C212.368 26.8016 211.929 26.3601 211.398 26.0552C210.867 25.7503 210.265 25.593 209.653 25.5996H205.421C205.09 25.5996 204.766 25.6886 204.482 25.8574C204.198 26.0262 203.964 26.2684 203.806 26.5586C203.653 26.8308 203.577 27.1396 203.587 27.4518C203.596 27.764 203.691 28.0675 203.861 28.3296L218.161 52.3376V65.9466C218.162 66.5772 218.412 67.1817 218.858 67.6275C219.304 68.0734 219.908 68.3241 220.539 68.3246H224.4C225.03 68.3238 225.635 68.073 226.081 67.6273C226.526 67.1815 226.777 66.5771 226.778 65.9466V52.3366L241.078 28.3216C241.246 28.0601 241.34 27.7576 241.349 27.4467C241.358 27.1359 241.282 26.8284 241.129 26.5576C240.971 26.2673 240.738 26.0249 240.453 25.8561C240.169 25.6873 239.845 25.5984 239.514 25.5986" fill="#1D1928"/>
<path d="M279.707 43.6205C279.36 43.5405 279.007 43.4615 278.637 43.3815C274.848 42.5495 270.553 41.6075 270.553 37.4685C270.553 33.9745 273.671 32.4105 276.76 32.4105C279.574 32.4105 281.823 33.5625 282.932 35.5715C283.133 35.9317 283.426 36.2324 283.781 36.4431C284.135 36.6538 284.539 36.7671 284.952 36.7715C285.143 36.7714 285.333 36.7465 285.518 36.6975L289.318 35.7915C289.673 35.6977 290.002 35.526 290.282 35.2888C290.562 35.0516 290.785 34.755 290.936 34.4205C291.075 34.1153 291.144 33.783 291.138 33.4477C291.133 33.1125 291.052 32.7828 290.903 32.4825C288.496 27.6095 283.494 24.8135 277.179 24.8135C268.127 24.8135 262.044 30.1135 262.044 38.0135C262.044 44.6135 265.597 48.4445 273.564 50.4215C274.639 50.6925 275.65 50.9215 276.628 51.1495C281.608 52.2935 284.898 53.0495 284.898 56.3925C284.898 59.5975 282.126 61.5115 277.482 61.5115C272.29 61.5115 270.059 59.0355 269.191 57.5605C268.992 57.2163 268.704 56.9318 268.358 56.7362C268.012 56.5407 267.62 56.4414 267.222 56.4485C266.97 56.4485 266.719 56.487 266.479 56.5625L262.669 57.7725C262.349 57.8646 262.054 58.0261 261.803 58.2457C261.553 58.4652 261.355 58.7373 261.222 59.0425C261.081 59.3649 261.013 59.7146 261.023 60.0663C261.033 60.4181 261.12 60.7634 261.279 61.0775C263.898 66.1445 269.825 69.0495 277.542 69.0495C289.342 69.0495 293.524 61.9055 293.524 55.7885C293.524 49.0565 290.036 45.9885 279.703 43.6205" fill="#1D1928"/>
<path d="M322.708 25.5996H298.464C297.841 25.6083 297.248 25.8636 296.813 26.3094C296.379 26.7552 296.139 27.3551 296.146 27.9776V31.2426C296.139 31.8652 296.379 32.4653 296.813 32.9113C297.248 33.3572 297.841 33.6127 298.464 33.6216H306.3V65.9466C306.293 66.5691 306.533 67.1691 306.967 67.6149C307.402 68.0607 307.995 68.3159 308.618 68.3246H312.548C312.857 68.3239 313.163 68.2615 313.448 68.141C313.733 68.0205 313.991 67.8443 314.207 67.6228C314.423 67.4014 314.592 67.139 314.705 66.8512C314.819 66.5634 314.873 66.2558 314.866 65.9466V33.6206H322.705C323.336 33.6198 323.94 33.3689 324.386 32.9229C324.832 32.4769 325.082 31.8722 325.083 31.2416V27.9766C325.082 27.3462 324.831 26.7418 324.386 26.296C323.94 25.8502 323.335 25.5994 322.705 25.5986" fill="#1D1928"/>
<path d="M349.128 24.8728C346.234 24.8275 343.36 25.3672 340.68 26.4594C337.999 27.5515 335.567 29.1738 333.528 31.2288C329.506 35.4691 327.306 41.117 327.4 46.9608C327.4 59.5878 336.739 69.1098 349.125 69.1098C361.511 69.1098 370.85 59.5878 370.85 46.9608C370.945 41.1173 368.746 35.4694 364.724 31.2288C362.686 29.1735 360.253 27.5511 357.573 26.4589C354.892 25.3667 352.018 24.8272 349.124 24.8728M362.224 46.9608C362.224 53.8908 357.724 60.9068 349.124 60.9068C340.524 60.9068 336.024 53.8908 336.024 46.9608C336.024 40.0608 340.524 33.0758 349.124 33.0758C357.724 33.0758 362.224 40.0608 362.224 46.9608Z" fill="#1D1928"/>
<path d="M400.261 51.2776C402.501 50.268 404.393 48.62 405.7 46.54C407.007 44.4601 407.672 42.0406 407.611 39.5846C407.611 31.3496 401.064 25.5986 391.69 25.5986H379.175C378.544 25.5992 377.94 25.8498 377.494 26.2957C377.048 26.7415 376.797 27.346 376.796 27.9766V65.9446C376.797 66.5752 377.048 67.1798 377.494 67.6256C377.94 68.0714 378.544 68.3221 379.175 68.3226H383.044C383.674 68.3221 384.279 68.0714 384.725 67.6255C385.171 67.1797 385.421 66.5752 385.422 65.9446V53.0876H392.237L400.037 66.8306C400.291 67.2802 400.658 67.6548 401.103 67.9168C401.548 68.1787 402.054 68.3187 402.57 68.3226H407.951C408.225 68.3268 408.495 68.2573 408.733 68.1213C408.971 67.9853 409.168 67.7879 409.304 67.5496C409.442 67.3065 409.511 67.0308 409.506 66.7514C409.5 66.472 409.42 66.1993 409.273 65.9616L400.261 51.2776ZM398.861 39.5846C398.861 43.4136 396.246 45.6096 391.687 45.6096H385.419V33.6196H391.687C396.112 33.6196 398.861 35.9056 398.861 39.5846Z" fill="#1D1928"/>
<path d="M438.06 60.2996H423.631V50.7306H436.125C436.737 50.7226 437.322 50.4758 437.755 50.0428C438.188 49.6098 438.435 49.0249 438.443 48.4126V45.0866C438.45 44.4641 438.21 43.8642 437.776 43.4184C437.341 42.9726 436.747 42.7173 436.125 42.7086H423.631V33.6206H437.516C438.139 33.6117 438.732 33.3562 439.167 32.9103C439.601 32.4643 439.841 31.8642 439.834 31.2416V27.9776C439.841 27.355 439.601 26.755 439.167 26.309C438.732 25.8631 438.139 25.6076 437.516 25.5986H417.383C416.752 25.5994 416.148 25.8504 415.702 26.2964C415.256 26.7424 415.006 27.347 415.005 27.9776V65.9456C415.006 66.5761 415.257 67.1805 415.702 67.6263C416.148 68.072 416.753 68.3228 417.383 68.3236H438.06C438.69 68.3228 439.295 68.072 439.741 67.6263C440.186 67.1805 440.437 66.5761 440.438 65.9456V62.6806C440.437 62.0502 440.186 61.4458 439.741 61C439.295 60.5542 438.69 60.3034 438.06 60.3026" fill="#1D1928"/>
</svg>
